<mxfile host="app.diagrams.net" modified="2022-11-21T19:33:59.391Z" agent="5.0 (Windows NT 10.0; Win64; x64) AppleWebKit/537.36 (KHTML, like Gecko) Chrome/107.0.0.0 Safari/537.36" etag="KkfCzUL9Wu0qxRr2cy0z" version="20.5.3" type="github">
  <diagram id="kgpKYQtTHZ0yAKxKKP6v" name="Page-1">
    <mxGraphModel dx="865" dy="403" grid="1" gridSize="10" guides="1" tooltips="1" connect="1" arrows="1" fold="1" page="1" pageScale="1" pageWidth="850" pageHeight="1100" math="0" shadow="0">
      <root>
        <mxCell id="0" />
        <mxCell id="1" parent="0" />
        <mxCell id="vB3oa_qT5mKGnojGgwLK-68" value="" style="whiteSpace=wrap;html=1;aspect=fixed;" vertex="1" parent="1">
          <mxGeometry width="80" height="80" as="geometry" />
        </mxCell>
        <mxCell id="sGXvdLq_XoUKNio_A1aQ-1" value="user" style="shape=umlActor;verticalLabelPosition=bottom;verticalAlign=top;html=1;fillColor=#21C0A5;strokeColor=#006658;fontColor=#5C5C5C;rounded=1;" parent="1" vertex="1">
          <mxGeometry x="136" y="40" width="30" height="60" as="geometry" />
        </mxCell>
        <mxCell id="sGXvdLq_XoUKNio_A1aQ-8" value="&lt;span style=&quot;&quot;&gt;Application IHM&lt;/span&gt;" style="shape=umlLifeline;perimeter=lifelinePerimeter;whiteSpace=wrap;html=1;container=1;collapsible=0;recursiveResize=0;outlineConnect=0;fillColor=#21C0A5;strokeColor=#006658;fontColor=#5C5C5C;rounded=1;" parent="1" vertex="1">
          <mxGeometry x="291" y="58" width="100" height="2292" as="geometry" />
        </mxCell>
        <mxCell id="sGXvdLq_XoUKNio_A1aQ-38" value="Display operation interface&lt;br&gt;(Console)" style="text;html=1;align=center;verticalAlign=middle;resizable=0;points=[];autosize=1;strokeColor=none;fillColor=none;fontColor=#5C5C5C;rounded=1;" parent="sGXvdLq_XoUKNio_A1aQ-8" vertex="1">
          <mxGeometry x="-130" y="351" width="170" height="40" as="geometry" />
        </mxCell>
        <mxCell id="sGXvdLq_XoUKNio_A1aQ-39" value="select create work" style="text;html=1;align=center;verticalAlign=middle;resizable=0;points=[];autosize=1;strokeColor=none;fillColor=none;fontColor=#5C5C5C;rounded=1;" parent="sGXvdLq_XoUKNio_A1aQ-8" vertex="1">
          <mxGeometry x="-105" y="408" width="120" height="30" as="geometry" />
        </mxCell>
        <mxCell id="sGXvdLq_XoUKNio_A1aQ-40" value="" style="endArrow=open;endFill=1;endSize=12;html=1;rounded=1;strokeColor=#006658;fontColor=#5C5C5C;fillColor=#21C0A5;" parent="sGXvdLq_XoUKNio_A1aQ-8" edge="1">
          <mxGeometry width="160" relative="1" as="geometry">
            <mxPoint x="-140" y="438" as="sourcePoint" />
            <mxPoint x="50" y="438" as="targetPoint" />
          </mxGeometry>
        </mxCell>
        <mxCell id="sGXvdLq_XoUKNio_A1aQ-79" value="Display creating interface" style="text;html=1;align=center;verticalAlign=middle;resizable=0;points=[];autosize=1;strokeColor=none;fillColor=none;fontColor=#5C5C5C;rounded=1;" parent="sGXvdLq_XoUKNio_A1aQ-8" vertex="1">
          <mxGeometry x="-125" y="480" width="160" height="30" as="geometry" />
        </mxCell>
        <mxCell id="sGXvdLq_XoUKNio_A1aQ-80" value="" style="endArrow=block;dashed=1;endFill=0;endSize=12;html=1;rounded=1;strokeColor=#006658;fontColor=#5C5C5C;fillColor=#21C0A5;" parent="sGXvdLq_XoUKNio_A1aQ-8" edge="1">
          <mxGeometry width="160" relative="1" as="geometry">
            <mxPoint x="49.92000000000007" y="510" as="sourcePoint" />
            <mxPoint x="-139.9133333333333" y="510" as="targetPoint" />
          </mxGeometry>
        </mxCell>
        <mxCell id="sGXvdLq_XoUKNio_A1aQ-101" value="Notify user of successful save&lt;br&gt;and display interface&amp;nbsp;" style="text;html=1;align=center;verticalAlign=middle;resizable=0;points=[];autosize=1;strokeColor=none;fillColor=none;fontColor=#5C5C5C;rounded=1;" parent="sGXvdLq_XoUKNio_A1aQ-8" vertex="1">
          <mxGeometry x="-134.9999999999999" y="1033" width="180" height="40" as="geometry" />
        </mxCell>
        <mxCell id="sGXvdLq_XoUKNio_A1aQ-102" value="" style="endArrow=block;dashed=1;endFill=0;endSize=12;html=1;rounded=1;strokeColor=#006658;fontColor=#5C5C5C;fillColor=#21C0A5;" parent="sGXvdLq_XoUKNio_A1aQ-8" edge="1">
          <mxGeometry width="160" relative="1" as="geometry">
            <mxPoint x="49.92000000000007" y="1073" as="sourcePoint" />
            <mxPoint x="-139.9133333333334" y="1073" as="targetPoint" />
          </mxGeometry>
        </mxCell>
        <mxCell id="sGXvdLq_XoUKNio_A1aQ-145" value="" style="endArrow=open;endFill=1;endSize=12;html=1;rounded=0;" parent="sGXvdLq_XoUKNio_A1aQ-8" edge="1">
          <mxGeometry width="160" relative="1" as="geometry">
            <mxPoint x="50" y="2272" as="sourcePoint" />
            <mxPoint x="49.83333333333337" y="2292" as="targetPoint" />
            <Array as="points">
              <mxPoint x="80" y="2272" />
              <mxPoint x="80" y="2292" />
            </Array>
          </mxGeometry>
        </mxCell>
        <mxCell id="sGXvdLq_XoUKNio_A1aQ-152" value="Select where to save folder" style="text;html=1;align=center;verticalAlign=middle;resizable=0;points=[];autosize=1;strokeColor=none;fillColor=none;fontColor=#5C5C5C;rounded=1;" parent="sGXvdLq_XoUKNio_A1aQ-8" vertex="1">
          <mxGeometry x="-130" y="702" width="170" height="30" as="geometry" />
        </mxCell>
        <mxCell id="sGXvdLq_XoUKNio_A1aQ-153" value="" style="endArrow=open;endFill=1;endSize=12;html=1;rounded=1;strokeColor=#006658;fontColor=#5C5C5C;fillColor=#21C0A5;" parent="sGXvdLq_XoUKNio_A1aQ-8" edge="1">
          <mxGeometry width="160" relative="1" as="geometry">
            <mxPoint x="-140" y="732" as="sourcePoint" />
            <mxPoint x="50" y="732" as="targetPoint" />
          </mxGeometry>
        </mxCell>
        <mxCell id="sGXvdLq_XoUKNio_A1aQ-11" value="&lt;span style=&quot;&quot;&gt;Application&lt;/span&gt;" style="shape=umlLifeline;perimeter=lifelinePerimeter;whiteSpace=wrap;html=1;container=1;collapsible=0;recursiveResize=0;outlineConnect=0;fillColor=#21C0A5;strokeColor=#006658;fontColor=#5C5C5C;rounded=1;" parent="1" vertex="1">
          <mxGeometry x="481" y="58" width="100" height="2292" as="geometry" />
        </mxCell>
        <mxCell id="sGXvdLq_XoUKNio_A1aQ-41" value="Ask interface create work" style="text;html=1;align=center;verticalAlign=middle;resizable=0;points=[];autosize=1;strokeColor=none;fillColor=none;fontColor=#5C5C5C;rounded=1;" parent="sGXvdLq_XoUKNio_A1aQ-11" vertex="1">
          <mxGeometry x="-122" y="428" width="160" height="30" as="geometry" />
        </mxCell>
        <mxCell id="sGXvdLq_XoUKNio_A1aQ-42" value="" style="endArrow=open;endFill=1;endSize=12;html=1;rounded=1;strokeColor=#006658;fontColor=#5C5C5C;fillColor=#21C0A5;" parent="sGXvdLq_XoUKNio_A1aQ-11" edge="1">
          <mxGeometry width="160" relative="1" as="geometry">
            <mxPoint x="-140" y="458" as="sourcePoint" />
            <mxPoint x="50" y="458" as="targetPoint" />
          </mxGeometry>
        </mxCell>
        <mxCell id="sGXvdLq_XoUKNio_A1aQ-83" value="Select create work src" style="text;html=1;align=center;verticalAlign=middle;resizable=0;points=[];autosize=1;strokeColor=none;fillColor=none;fontColor=#5C5C5C;rounded=1;" parent="sGXvdLq_XoUKNio_A1aQ-11" vertex="1">
          <mxGeometry x="-305" y="539" width="140" height="30" as="geometry" />
        </mxCell>
        <mxCell id="sGXvdLq_XoUKNio_A1aQ-84" value="" style="endArrow=open;endFill=1;endSize=12;html=1;rounded=1;strokeColor=#006658;fontColor=#5C5C5C;fillColor=#21C0A5;" parent="sGXvdLq_XoUKNio_A1aQ-11" edge="1">
          <mxGeometry width="160" relative="1" as="geometry">
            <mxPoint x="-330" y="569" as="sourcePoint" />
            <mxPoint x="-140" y="569" as="targetPoint" />
          </mxGeometry>
        </mxCell>
        <mxCell id="sGXvdLq_XoUKNio_A1aQ-87" value="Ask interface create work src" style="text;html=1;align=center;verticalAlign=middle;resizable=0;points=[];autosize=1;strokeColor=none;fillColor=none;fontColor=#5C5C5C;rounded=1;" parent="sGXvdLq_XoUKNio_A1aQ-11" vertex="1">
          <mxGeometry x="-132" y="559" width="180" height="30" as="geometry" />
        </mxCell>
        <mxCell id="sGXvdLq_XoUKNio_A1aQ-88" value="" style="endArrow=open;endFill=1;endSize=12;html=1;rounded=1;strokeColor=#006658;fontColor=#5C5C5C;fillColor=#21C0A5;" parent="sGXvdLq_XoUKNio_A1aQ-11" edge="1">
          <mxGeometry width="160" relative="1" as="geometry">
            <mxPoint x="-140" y="589" as="sourcePoint" />
            <mxPoint x="50" y="589" as="targetPoint" />
          </mxGeometry>
        </mxCell>
        <mxCell id="sGXvdLq_XoUKNio_A1aQ-99" value="Saved successfully" style="text;html=1;align=center;verticalAlign=middle;resizable=0;points=[];autosize=1;strokeColor=none;fillColor=none;fontColor=#5C5C5C;rounded=1;" parent="sGXvdLq_XoUKNio_A1aQ-11" vertex="1">
          <mxGeometry x="-109.99999999999989" y="1023" width="130" height="30" as="geometry" />
        </mxCell>
        <mxCell id="sGXvdLq_XoUKNio_A1aQ-100" value="" style="endArrow=block;dashed=1;endFill=0;endSize=12;html=1;rounded=1;strokeColor=#006658;fontColor=#5C5C5C;fillColor=#21C0A5;" parent="sGXvdLq_XoUKNio_A1aQ-11" edge="1">
          <mxGeometry width="160" relative="1" as="geometry">
            <mxPoint x="49.920000000000186" y="1053" as="sourcePoint" />
            <mxPoint x="-139.9133333333333" y="1053" as="targetPoint" />
          </mxGeometry>
        </mxCell>
        <mxCell id="sGXvdLq_XoUKNio_A1aQ-12" value="&lt;span style=&quot;&quot;&gt;Storage&lt;/span&gt;" style="shape=umlLifeline;perimeter=lifelinePerimeter;whiteSpace=wrap;html=1;container=1;collapsible=0;recursiveResize=0;outlineConnect=0;fillColor=#21C0A5;strokeColor=#006658;fontColor=#5C5C5C;rounded=1;" parent="1" vertex="1">
          <mxGeometry x="671" y="58" width="100" height="2292" as="geometry" />
        </mxCell>
        <mxCell id="sGXvdLq_XoUKNio_A1aQ-61" value="Alternative" style="shape=umlFrame;whiteSpace=wrap;html=1;width=60;height=35;" parent="sGXvdLq_XoUKNio_A1aQ-12" vertex="1">
          <mxGeometry x="-591" y="630" width="661" height="251" as="geometry" />
        </mxCell>
        <mxCell id="sGXvdLq_XoUKNio_A1aQ-44" value="Loading screen" style="text;html=1;align=center;verticalAlign=middle;resizable=0;points=[];autosize=1;strokeColor=none;fillColor=none;fontColor=#5C5C5C;rounded=1;" parent="sGXvdLq_XoUKNio_A1aQ-12" vertex="1">
          <mxGeometry x="-289.58" y="886" width="110" height="30" as="geometry" />
        </mxCell>
        <mxCell id="sGXvdLq_XoUKNio_A1aQ-45" value="" style="endArrow=block;dashed=1;endFill=0;endSize=12;html=1;rounded=1;strokeColor=#006658;fontColor=#5C5C5C;fillColor=#21C0A5;" parent="sGXvdLq_XoUKNio_A1aQ-12" edge="1">
          <mxGeometry width="160" relative="1" as="geometry">
            <mxPoint x="-140.07999999999976" y="914" as="sourcePoint" />
            <mxPoint x="-329.91333333333324" y="914" as="targetPoint" />
          </mxGeometry>
        </mxCell>
        <mxCell id="sGXvdLq_XoUKNio_A1aQ-48" value="" style="endArrow=block;endFill=0;endSize=12;html=1;rounded=1;strokeColor=#006658;fontColor=#5C5C5C;fillColor=#21C0A5;" parent="sGXvdLq_XoUKNio_A1aQ-12" edge="1">
          <mxGeometry width="160" relative="1" as="geometry">
            <mxPoint x="-330.0799999999999" y="935" as="sourcePoint" />
            <mxPoint x="-519.9133333333333" y="935" as="targetPoint" />
          </mxGeometry>
        </mxCell>
        <mxCell id="sGXvdLq_XoUKNio_A1aQ-47" value="Request user enter data" style="text;html=1;align=center;verticalAlign=middle;resizable=0;points=[];autosize=1;strokeColor=none;fillColor=none;fontColor=#5C5C5C;rounded=1;" parent="sGXvdLq_XoUKNio_A1aQ-12" vertex="1">
          <mxGeometry x="-500" y="905" width="150" height="30" as="geometry" />
        </mxCell>
        <mxCell id="sGXvdLq_XoUKNio_A1aQ-95" value="Save work src created&lt;br&gt;&amp;nbsp;" style="text;html=1;align=center;verticalAlign=middle;resizable=0;points=[];autosize=1;strokeColor=none;fillColor=none;fontColor=#5C5C5C;rounded=1;" parent="sGXvdLq_XoUKNio_A1aQ-12" vertex="1">
          <mxGeometry x="-112" y="973" width="140" height="40" as="geometry" />
        </mxCell>
        <mxCell id="sGXvdLq_XoUKNio_A1aQ-96" value="" style="endArrow=open;endFill=1;endSize=12;html=1;rounded=1;strokeColor=#006658;fontColor=#5C5C5C;fillColor=#21C0A5;" parent="sGXvdLq_XoUKNio_A1aQ-12" edge="1">
          <mxGeometry width="160" relative="1" as="geometry">
            <mxPoint x="-140" y="1002" as="sourcePoint" />
            <mxPoint x="50" y="1002" as="targetPoint" />
          </mxGeometry>
        </mxCell>
        <mxCell id="sGXvdLq_XoUKNio_A1aQ-97" value="Saved successfully" style="text;html=1;align=center;verticalAlign=middle;resizable=0;points=[];autosize=1;strokeColor=none;fillColor=none;fontColor=#5C5C5C;rounded=1;" parent="sGXvdLq_XoUKNio_A1aQ-12" vertex="1">
          <mxGeometry x="-110.08999999999992" y="1002" width="130" height="30" as="geometry" />
        </mxCell>
        <mxCell id="sGXvdLq_XoUKNio_A1aQ-98" value="" style="endArrow=block;dashed=1;endFill=0;endSize=12;html=1;rounded=1;strokeColor=#006658;fontColor=#5C5C5C;fillColor=#21C0A5;" parent="sGXvdLq_XoUKNio_A1aQ-12" edge="1">
          <mxGeometry width="160" relative="1" as="geometry">
            <mxPoint x="49.830000000000155" y="1032" as="sourcePoint" />
            <mxPoint x="-140.00333333333333" y="1032" as="targetPoint" />
          </mxGeometry>
        </mxCell>
        <mxCell id="sGXvdLq_XoUKNio_A1aQ-57" value="Loading screen" style="text;html=1;align=center;verticalAlign=middle;resizable=0;points=[];autosize=1;strokeColor=none;fillColor=none;fontColor=#5C5C5C;rounded=1;" parent="sGXvdLq_XoUKNio_A1aQ-12" vertex="1">
          <mxGeometry x="-289.58000000000004" y="651.1700000000001" width="110" height="30" as="geometry" />
        </mxCell>
        <mxCell id="sGXvdLq_XoUKNio_A1aQ-150" value="Request where to save folder&lt;br&gt;(local, hard disk, cloud)&amp;nbsp;" style="text;html=1;align=center;verticalAlign=middle;resizable=0;points=[];autosize=1;strokeColor=none;fillColor=none;fontColor=#5C5C5C;rounded=1;" parent="sGXvdLq_XoUKNio_A1aQ-12" vertex="1">
          <mxGeometry x="-515" y="663.0000000000001" width="180" height="40" as="geometry" />
        </mxCell>
        <mxCell id="sGXvdLq_XoUKNio_A1aQ-151" value="" style="endArrow=block;dashed=1;endFill=0;endSize=12;html=1;rounded=1;strokeColor=#006658;fontColor=#5C5C5C;fillColor=#21C0A5;" parent="sGXvdLq_XoUKNio_A1aQ-12" edge="1">
          <mxGeometry width="160" relative="1" as="geometry">
            <mxPoint x="-330.0799999999996" y="702.83" as="sourcePoint" />
            <mxPoint x="-519.9133333333333" y="702.83" as="targetPoint" />
          </mxGeometry>
        </mxCell>
        <mxCell id="sGXvdLq_XoUKNio_A1aQ-155" value="" style="endArrow=open;endFill=1;endSize=12;html=1;rounded=1;strokeColor=#006658;fontColor=#5C5C5C;fillColor=#21C0A5;" parent="sGXvdLq_XoUKNio_A1aQ-12" edge="1">
          <mxGeometry width="160" relative="1" as="geometry">
            <mxPoint x="-329.58000000000004" y="753.23" as="sourcePoint" />
            <mxPoint x="-139.58000000000004" y="753.23" as="targetPoint" />
          </mxGeometry>
        </mxCell>
        <mxCell id="sGXvdLq_XoUKNio_A1aQ-157" value="" style="endArrow=open;endFill=1;endSize=12;html=1;rounded=1;strokeColor=#006658;fontColor=#5C5C5C;fillColor=#21C0A5;" parent="sGXvdLq_XoUKNio_A1aQ-12" edge="1">
          <mxGeometry width="160" relative="1" as="geometry">
            <mxPoint x="-140.08999999999992" y="773.23" as="sourcePoint" />
            <mxPoint x="49.91000000000008" y="773.23" as="targetPoint" />
          </mxGeometry>
        </mxCell>
        <mxCell id="sGXvdLq_XoUKNio_A1aQ-158" value="Create the folder" style="text;html=1;align=center;verticalAlign=middle;resizable=0;points=[];autosize=1;strokeColor=none;fillColor=none;fontColor=#5C5C5C;rounded=1;" parent="sGXvdLq_XoUKNio_A1aQ-12" vertex="1">
          <mxGeometry x="-100.50999999999999" y="743" width="110" height="30" as="geometry" />
        </mxCell>
        <mxCell id="sGXvdLq_XoUKNio_A1aQ-60" value="" style="endArrow=block;dashed=1;endFill=0;endSize=12;html=1;rounded=1;strokeColor=#006658;fontColor=#5C5C5C;fillColor=#21C0A5;" parent="sGXvdLq_XoUKNio_A1aQ-12" edge="1">
          <mxGeometry width="160" relative="1" as="geometry">
            <mxPoint x="49.830000000000155" y="806" as="sourcePoint" />
            <mxPoint x="-140.00333333333333" y="806" as="targetPoint" />
          </mxGeometry>
        </mxCell>
        <mxCell id="sGXvdLq_XoUKNio_A1aQ-59" value="Created successfully" style="text;html=1;align=center;verticalAlign=middle;resizable=0;points=[];autosize=1;strokeColor=none;fillColor=none;fontColor=#5C5C5C;rounded=1;" parent="sGXvdLq_XoUKNio_A1aQ-12" vertex="1">
          <mxGeometry x="-110.08999999999992" y="776" width="130" height="30" as="geometry" />
        </mxCell>
        <mxCell id="sGXvdLq_XoUKNio_A1aQ-66" value="Existent src folder" style="text;html=1;align=center;verticalAlign=middle;resizable=0;points=[];autosize=1;strokeColor=none;fillColor=none;fontColor=#5C5C5C;rounded=1;" parent="sGXvdLq_XoUKNio_A1aQ-12" vertex="1">
          <mxGeometry x="-105.50999999999993" y="831" width="120" height="30" as="geometry" />
        </mxCell>
        <mxCell id="sGXvdLq_XoUKNio_A1aQ-67" value="" style="endArrow=block;dashed=1;endFill=0;endSize=12;html=1;rounded=1;strokeColor=#006658;fontColor=#5C5C5C;fillColor=#21C0A5;" parent="sGXvdLq_XoUKNio_A1aQ-12" edge="1">
          <mxGeometry width="160" relative="1" as="geometry">
            <mxPoint x="49.410000000000196" y="861" as="sourcePoint" />
            <mxPoint x="-140.42333333333335" y="861" as="targetPoint" />
          </mxGeometry>
        </mxCell>
        <mxCell id="sGXvdLq_XoUKNio_A1aQ-50" value="" style="endArrow=open;endFill=1;endSize=12;html=1;rounded=1;strokeColor=#006658;fontColor=#5C5C5C;fillColor=#21C0A5;" parent="sGXvdLq_XoUKNio_A1aQ-12" edge="1">
          <mxGeometry width="160" relative="1" as="geometry">
            <mxPoint x="-140.51000000000005" y="611" as="sourcePoint" />
            <mxPoint x="49.49000000000001" y="611" as="targetPoint" />
          </mxGeometry>
        </mxCell>
        <mxCell id="sGXvdLq_XoUKNio_A1aQ-243" value="Notify user of successful save&lt;br&gt;and display interface&amp;nbsp;" style="text;html=1;align=center;verticalAlign=middle;resizable=0;points=[];autosize=1;strokeColor=none;fillColor=none;fontColor=#5C5C5C;rounded=1;" parent="sGXvdLq_XoUKNio_A1aQ-12" vertex="1">
          <mxGeometry x="-513.9999999999999" y="1595" width="180" height="40" as="geometry" />
        </mxCell>
        <mxCell id="sGXvdLq_XoUKNio_A1aQ-244" value="" style="endArrow=block;dashed=1;endFill=0;endSize=12;html=1;rounded=1;strokeColor=#006658;fontColor=#5C5C5C;fillColor=#21C0A5;" parent="sGXvdLq_XoUKNio_A1aQ-12" edge="1">
          <mxGeometry width="160" relative="1" as="geometry">
            <mxPoint x="-330.0799999999999" y="1635" as="sourcePoint" />
            <mxPoint x="-519.9133333333332" y="1635" as="targetPoint" />
          </mxGeometry>
        </mxCell>
        <mxCell id="sGXvdLq_XoUKNio_A1aQ-245" value="Select where to save folder" style="text;html=1;align=center;verticalAlign=middle;resizable=0;points=[];autosize=1;strokeColor=none;fillColor=none;fontColor=#5C5C5C;rounded=1;" parent="sGXvdLq_XoUKNio_A1aQ-12" vertex="1">
          <mxGeometry x="-509" y="1264" width="170" height="30" as="geometry" />
        </mxCell>
        <mxCell id="sGXvdLq_XoUKNio_A1aQ-246" value="" style="endArrow=open;endFill=1;endSize=12;html=1;rounded=1;strokeColor=#006658;fontColor=#5C5C5C;fillColor=#21C0A5;" parent="sGXvdLq_XoUKNio_A1aQ-12" edge="1">
          <mxGeometry width="160" relative="1" as="geometry">
            <mxPoint x="-519" y="1294" as="sourcePoint" />
            <mxPoint x="-329" y="1294" as="targetPoint" />
          </mxGeometry>
        </mxCell>
        <mxCell id="sGXvdLq_XoUKNio_A1aQ-247" value="Select create work target" style="text;html=1;align=center;verticalAlign=middle;resizable=0;points=[];autosize=1;strokeColor=none;fillColor=none;fontColor=#5C5C5C;rounded=1;" parent="sGXvdLq_XoUKNio_A1aQ-12" vertex="1">
          <mxGeometry x="-504" y="1101" width="160" height="30" as="geometry" />
        </mxCell>
        <mxCell id="sGXvdLq_XoUKNio_A1aQ-248" value="" style="endArrow=open;endFill=1;endSize=12;html=1;rounded=1;strokeColor=#006658;fontColor=#5C5C5C;fillColor=#21C0A5;" parent="sGXvdLq_XoUKNio_A1aQ-12" edge="1">
          <mxGeometry width="160" relative="1" as="geometry">
            <mxPoint x="-519" y="1131" as="sourcePoint" />
            <mxPoint x="-329" y="1131" as="targetPoint" />
          </mxGeometry>
        </mxCell>
        <mxCell id="sGXvdLq_XoUKNio_A1aQ-249" value="Ask interface create work target" style="text;html=1;align=center;verticalAlign=middle;resizable=0;points=[];autosize=1;strokeColor=none;fillColor=none;fontColor=#5C5C5C;rounded=1;" parent="sGXvdLq_XoUKNio_A1aQ-12" vertex="1">
          <mxGeometry x="-326" y="1121" width="190" height="30" as="geometry" />
        </mxCell>
        <mxCell id="sGXvdLq_XoUKNio_A1aQ-250" value="" style="endArrow=open;endFill=1;endSize=12;html=1;rounded=1;strokeColor=#006658;fontColor=#5C5C5C;fillColor=#21C0A5;" parent="sGXvdLq_XoUKNio_A1aQ-12" edge="1">
          <mxGeometry width="160" relative="1" as="geometry">
            <mxPoint x="-329" y="1151" as="sourcePoint" />
            <mxPoint x="-139" y="1151" as="targetPoint" />
          </mxGeometry>
        </mxCell>
        <mxCell id="sGXvdLq_XoUKNio_A1aQ-251" value="Saved successfully" style="text;html=1;align=center;verticalAlign=middle;resizable=0;points=[];autosize=1;strokeColor=none;fillColor=none;fontColor=#5C5C5C;rounded=1;" parent="sGXvdLq_XoUKNio_A1aQ-12" vertex="1">
          <mxGeometry x="-298.9999999999999" y="1585" width="130" height="30" as="geometry" />
        </mxCell>
        <mxCell id="sGXvdLq_XoUKNio_A1aQ-252" value="" style="endArrow=block;dashed=1;endFill=0;endSize=12;html=1;rounded=1;strokeColor=#006658;fontColor=#5C5C5C;fillColor=#21C0A5;" parent="sGXvdLq_XoUKNio_A1aQ-12" edge="1">
          <mxGeometry width="160" relative="1" as="geometry">
            <mxPoint x="-141.07999999999993" y="1615" as="sourcePoint" />
            <mxPoint x="-330.9133333333332" y="1615" as="targetPoint" />
          </mxGeometry>
        </mxCell>
        <mxCell id="sGXvdLq_XoUKNio_A1aQ-253" value="Alternative" style="shape=umlFrame;whiteSpace=wrap;html=1;width=60;height=35;" parent="sGXvdLq_XoUKNio_A1aQ-12" vertex="1">
          <mxGeometry x="-590" y="1192" width="661" height="251" as="geometry" />
        </mxCell>
        <mxCell id="sGXvdLq_XoUKNio_A1aQ-254" value="Loading screen" style="text;html=1;align=center;verticalAlign=middle;resizable=0;points=[];autosize=1;strokeColor=none;fillColor=none;fontColor=#5C5C5C;rounded=1;" parent="sGXvdLq_XoUKNio_A1aQ-12" vertex="1">
          <mxGeometry x="-288.58" y="1448" width="110" height="30" as="geometry" />
        </mxCell>
        <mxCell id="sGXvdLq_XoUKNio_A1aQ-255" value="" style="endArrow=block;dashed=1;endFill=0;endSize=12;html=1;rounded=1;strokeColor=#006658;fontColor=#5C5C5C;fillColor=#21C0A5;" parent="sGXvdLq_XoUKNio_A1aQ-12" edge="1">
          <mxGeometry width="160" relative="1" as="geometry">
            <mxPoint x="-141.0799999999997" y="1476" as="sourcePoint" />
            <mxPoint x="-330.9133333333332" y="1476" as="targetPoint" />
          </mxGeometry>
        </mxCell>
        <mxCell id="sGXvdLq_XoUKNio_A1aQ-256" value="" style="endArrow=block;endFill=0;endSize=12;html=1;rounded=1;strokeColor=#006658;fontColor=#5C5C5C;fillColor=#21C0A5;" parent="sGXvdLq_XoUKNio_A1aQ-12" edge="1">
          <mxGeometry width="160" relative="1" as="geometry">
            <mxPoint x="-330.0799999999999" y="1497" as="sourcePoint" />
            <mxPoint x="-519.9133333333332" y="1497" as="targetPoint" />
          </mxGeometry>
        </mxCell>
        <mxCell id="sGXvdLq_XoUKNio_A1aQ-257" value="Request user enter data" style="text;html=1;align=center;verticalAlign=middle;resizable=0;points=[];autosize=1;strokeColor=none;fillColor=none;fontColor=#5C5C5C;rounded=1;" parent="sGXvdLq_XoUKNio_A1aQ-12" vertex="1">
          <mxGeometry x="-499" y="1467" width="150" height="30" as="geometry" />
        </mxCell>
        <mxCell id="sGXvdLq_XoUKNio_A1aQ-258" value="Save work target&amp;nbsp;created&lt;br&gt;&amp;nbsp;" style="text;html=1;align=center;verticalAlign=middle;resizable=0;points=[];autosize=1;strokeColor=none;fillColor=none;fontColor=#5C5C5C;rounded=1;" parent="sGXvdLq_XoUKNio_A1aQ-12" vertex="1">
          <mxGeometry x="-121" y="1535" width="160" height="40" as="geometry" />
        </mxCell>
        <mxCell id="sGXvdLq_XoUKNio_A1aQ-259" value="" style="endArrow=open;endFill=1;endSize=12;html=1;rounded=1;strokeColor=#006658;fontColor=#5C5C5C;fillColor=#21C0A5;" parent="sGXvdLq_XoUKNio_A1aQ-12" edge="1">
          <mxGeometry width="160" relative="1" as="geometry">
            <mxPoint x="-139" y="1564" as="sourcePoint" />
            <mxPoint x="51" y="1564" as="targetPoint" />
          </mxGeometry>
        </mxCell>
        <mxCell id="sGXvdLq_XoUKNio_A1aQ-260" value="Saved successfully" style="text;html=1;align=center;verticalAlign=middle;resizable=0;points=[];autosize=1;strokeColor=none;fillColor=none;fontColor=#5C5C5C;rounded=1;" parent="sGXvdLq_XoUKNio_A1aQ-12" vertex="1">
          <mxGeometry x="-109.08999999999992" y="1564" width="130" height="30" as="geometry" />
        </mxCell>
        <mxCell id="sGXvdLq_XoUKNio_A1aQ-261" value="" style="endArrow=block;dashed=1;endFill=0;endSize=12;html=1;rounded=1;strokeColor=#006658;fontColor=#5C5C5C;fillColor=#21C0A5;" parent="sGXvdLq_XoUKNio_A1aQ-12" edge="1">
          <mxGeometry width="160" relative="1" as="geometry">
            <mxPoint x="49.830000000000155" y="1594" as="sourcePoint" />
            <mxPoint x="-140.00333333333333" y="1594" as="targetPoint" />
          </mxGeometry>
        </mxCell>
        <mxCell id="sGXvdLq_XoUKNio_A1aQ-262" value="Loading screen" style="text;html=1;align=center;verticalAlign=middle;resizable=0;points=[];autosize=1;strokeColor=none;fillColor=none;fontColor=#5C5C5C;rounded=1;" parent="sGXvdLq_XoUKNio_A1aQ-12" vertex="1">
          <mxGeometry x="-288.58000000000004" y="1213.17" width="110" height="30" as="geometry" />
        </mxCell>
        <mxCell id="sGXvdLq_XoUKNio_A1aQ-263" value="Request where to save folder&lt;br&gt;(local, hard disk, cloud)&amp;nbsp;" style="text;html=1;align=center;verticalAlign=middle;resizable=0;points=[];autosize=1;strokeColor=none;fillColor=none;fontColor=#5C5C5C;rounded=1;" parent="sGXvdLq_XoUKNio_A1aQ-12" vertex="1">
          <mxGeometry x="-514" y="1225" width="180" height="40" as="geometry" />
        </mxCell>
        <mxCell id="sGXvdLq_XoUKNio_A1aQ-264" value="" style="endArrow=block;dashed=1;endFill=0;endSize=12;html=1;rounded=1;strokeColor=#006658;fontColor=#5C5C5C;fillColor=#21C0A5;" parent="sGXvdLq_XoUKNio_A1aQ-12" edge="1">
          <mxGeometry width="160" relative="1" as="geometry">
            <mxPoint x="-330.07999999999925" y="1264.83" as="sourcePoint" />
            <mxPoint x="-519.9133333333332" y="1264.83" as="targetPoint" />
          </mxGeometry>
        </mxCell>
        <mxCell id="sGXvdLq_XoUKNio_A1aQ-265" value="" style="endArrow=open;endFill=1;endSize=12;html=1;rounded=1;strokeColor=#006658;fontColor=#5C5C5C;fillColor=#21C0A5;" parent="sGXvdLq_XoUKNio_A1aQ-12" edge="1">
          <mxGeometry width="160" relative="1" as="geometry">
            <mxPoint x="-328.5799999999999" y="1315.2300000000002" as="sourcePoint" />
            <mxPoint x="-138.57999999999993" y="1315.2300000000002" as="targetPoint" />
          </mxGeometry>
        </mxCell>
        <mxCell id="sGXvdLq_XoUKNio_A1aQ-266" value="" style="endArrow=open;endFill=1;endSize=12;html=1;rounded=1;strokeColor=#006658;fontColor=#5C5C5C;fillColor=#21C0A5;" parent="sGXvdLq_XoUKNio_A1aQ-12" edge="1">
          <mxGeometry width="160" relative="1" as="geometry">
            <mxPoint x="-139.08999999999992" y="1335.2300000000002" as="sourcePoint" />
            <mxPoint x="50.91000000000008" y="1335.2300000000002" as="targetPoint" />
          </mxGeometry>
        </mxCell>
        <mxCell id="sGXvdLq_XoUKNio_A1aQ-267" value="Create the folder" style="text;html=1;align=center;verticalAlign=middle;resizable=0;points=[];autosize=1;strokeColor=none;fillColor=none;fontColor=#5C5C5C;rounded=1;" parent="sGXvdLq_XoUKNio_A1aQ-12" vertex="1">
          <mxGeometry x="-99.50999999999999" y="1305" width="110" height="30" as="geometry" />
        </mxCell>
        <mxCell id="sGXvdLq_XoUKNio_A1aQ-268" value="" style="endArrow=block;dashed=1;endFill=0;endSize=12;html=1;rounded=1;strokeColor=#006658;fontColor=#5C5C5C;fillColor=#21C0A5;" parent="sGXvdLq_XoUKNio_A1aQ-12" edge="1">
          <mxGeometry width="160" relative="1" as="geometry">
            <mxPoint x="49.830000000000155" y="1368" as="sourcePoint" />
            <mxPoint x="-140.00333333333333" y="1368" as="targetPoint" />
          </mxGeometry>
        </mxCell>
        <mxCell id="sGXvdLq_XoUKNio_A1aQ-269" value="Created successfully" style="text;html=1;align=center;verticalAlign=middle;resizable=0;points=[];autosize=1;strokeColor=none;fillColor=none;fontColor=#5C5C5C;rounded=1;" parent="sGXvdLq_XoUKNio_A1aQ-12" vertex="1">
          <mxGeometry x="-109.08999999999992" y="1338" width="130" height="30" as="geometry" />
        </mxCell>
        <mxCell id="sGXvdLq_XoUKNio_A1aQ-270" value="Existent target&amp;nbsp;folder" style="text;html=1;align=center;verticalAlign=middle;resizable=0;points=[];autosize=1;strokeColor=none;fillColor=none;fontColor=#5C5C5C;rounded=1;" parent="sGXvdLq_XoUKNio_A1aQ-12" vertex="1">
          <mxGeometry x="-109.50999999999999" y="1393" width="130" height="30" as="geometry" />
        </mxCell>
        <mxCell id="sGXvdLq_XoUKNio_A1aQ-271" value="" style="endArrow=block;dashed=1;endFill=0;endSize=12;html=1;rounded=1;strokeColor=#006658;fontColor=#5C5C5C;fillColor=#21C0A5;" parent="sGXvdLq_XoUKNio_A1aQ-12" edge="1">
          <mxGeometry width="160" relative="1" as="geometry">
            <mxPoint x="49.41000000000054" y="1423" as="sourcePoint" />
            <mxPoint x="-140.4233333333334" y="1423" as="targetPoint" />
          </mxGeometry>
        </mxCell>
        <mxCell id="sGXvdLq_XoUKNio_A1aQ-272" value="" style="endArrow=open;endFill=1;endSize=12;html=1;rounded=1;strokeColor=#006658;fontColor=#5C5C5C;fillColor=#21C0A5;" parent="sGXvdLq_XoUKNio_A1aQ-12" edge="1">
          <mxGeometry width="160" relative="1" as="geometry">
            <mxPoint x="-139.51" y="1173" as="sourcePoint" />
            <mxPoint x="50.49000000000001" y="1173" as="targetPoint" />
          </mxGeometry>
        </mxCell>
        <mxCell id="sGXvdLq_XoUKNio_A1aQ-273" value="Inexistent target&amp;nbsp;folder" style="text;html=1;align=center;verticalAlign=middle;resizable=0;points=[];autosize=1;strokeColor=none;fillColor=none;fontColor=#5C5C5C;rounded=1;" parent="sGXvdLq_XoUKNio_A1aQ-12" vertex="1">
          <mxGeometry x="-114.08999999999997" y="1193.17" width="140" height="30" as="geometry" />
        </mxCell>
        <mxCell id="sGXvdLq_XoUKNio_A1aQ-274" value="" style="endArrow=block;dashed=1;endFill=0;endSize=12;html=1;rounded=1;strokeColor=#006658;fontColor=#5C5C5C;fillColor=#21C0A5;" parent="sGXvdLq_XoUKNio_A1aQ-12" edge="1">
          <mxGeometry width="160" relative="1" as="geometry">
            <mxPoint x="49.830000000000155" y="1223.17" as="sourcePoint" />
            <mxPoint x="-140.00333333333333" y="1223.17" as="targetPoint" />
          </mxGeometry>
        </mxCell>
        <mxCell id="sGXvdLq_XoUKNio_A1aQ-275" value="[if folder is &lt;br&gt;inexistent]" style="text;html=1;align=center;verticalAlign=middle;resizable=0;points=[];autosize=1;strokeColor=none;fillColor=none;" parent="sGXvdLq_XoUKNio_A1aQ-12" vertex="1">
          <mxGeometry x="-599" y="1227.17" width="80" height="40" as="geometry" />
        </mxCell>
        <mxCell id="sGXvdLq_XoUKNio_A1aQ-276" value="Verify target&amp;nbsp;folder exists" style="text;html=1;align=center;verticalAlign=middle;resizable=0;points=[];autosize=1;strokeColor=none;fillColor=none;fontColor=#5C5C5C;rounded=1;" parent="sGXvdLq_XoUKNio_A1aQ-12" vertex="1">
          <mxGeometry x="-116.09000000000003" y="1143" width="150" height="30" as="geometry" />
        </mxCell>
        <mxCell id="sGXvdLq_XoUKNio_A1aQ-277" value="Data entered" style="text;html=1;align=center;verticalAlign=middle;resizable=0;points=[];autosize=1;strokeColor=none;fillColor=none;fontColor=#5C5C5C;rounded=1;" parent="sGXvdLq_XoUKNio_A1aQ-12" vertex="1">
          <mxGeometry x="-469" y="1498" width="90" height="30" as="geometry" />
        </mxCell>
        <mxCell id="sGXvdLq_XoUKNio_A1aQ-278" value="" style="endArrow=open;endFill=1;endSize=12;html=1;rounded=1;strokeColor=#006658;fontColor=#5C5C5C;fillColor=#21C0A5;" parent="sGXvdLq_XoUKNio_A1aQ-12" edge="1">
          <mxGeometry width="160" relative="1" as="geometry">
            <mxPoint x="-519" y="1527" as="sourcePoint" />
            <mxPoint x="-329" y="1527" as="targetPoint" />
          </mxGeometry>
        </mxCell>
        <mxCell id="sGXvdLq_XoUKNio_A1aQ-279" value="Send work target&amp;nbsp;created" style="text;html=1;align=center;verticalAlign=middle;resizable=0;points=[];autosize=1;strokeColor=none;fillColor=none;fontColor=#5C5C5C;rounded=1;" parent="sGXvdLq_XoUKNio_A1aQ-12" vertex="1">
          <mxGeometry x="-311" y="1517" width="160" height="30" as="geometry" />
        </mxCell>
        <mxCell id="sGXvdLq_XoUKNio_A1aQ-280" value="" style="endArrow=open;endFill=1;endSize=12;html=1;rounded=1;strokeColor=#006658;fontColor=#5C5C5C;fillColor=#21C0A5;" parent="sGXvdLq_XoUKNio_A1aQ-12" edge="1">
          <mxGeometry width="160" relative="1" as="geometry">
            <mxPoint x="-329" y="1547" as="sourcePoint" />
            <mxPoint x="-139" y="1547" as="targetPoint" />
          </mxGeometry>
        </mxCell>
        <mxCell id="sGXvdLq_XoUKNio_A1aQ-281" value="" style="endArrow=block;dashed=1;endFill=0;endSize=12;html=1;rounded=1;strokeColor=#006658;fontColor=#5C5C5C;fillColor=#21C0A5;" parent="sGXvdLq_XoUKNio_A1aQ-12" edge="1">
          <mxGeometry width="160" relative="1" as="geometry">
            <mxPoint x="-140.65999999999963" y="1243" as="sourcePoint" />
            <mxPoint x="-330.4933333333331" y="1243" as="targetPoint" />
          </mxGeometry>
        </mxCell>
        <mxCell id="sGXvdLq_XoUKNio_A1aQ-282" value="Send option selected" style="text;html=1;align=center;verticalAlign=middle;resizable=0;points=[];autosize=1;strokeColor=none;fillColor=none;fontColor=#5C5C5C;rounded=1;" parent="sGXvdLq_XoUKNio_A1aQ-12" vertex="1">
          <mxGeometry x="-304" y="1285" width="140" height="30" as="geometry" />
        </mxCell>
        <mxCell id="sGXvdLq_XoUKNio_A1aQ-283" value="" style="line;strokeWidth=1;fillColor=none;align=left;verticalAlign=middle;spacingTop=-1;spacingLeft=3;spacingRight=3;rotatable=0;labelPosition=right;points=[];portConstraint=eastwest;strokeColor=inherit;dashed=1;" parent="sGXvdLq_XoUKNio_A1aQ-12" vertex="1">
          <mxGeometry x="-590" y="1383" width="661" height="8" as="geometry" />
        </mxCell>
        <mxCell id="sGXvdLq_XoUKNio_A1aQ-284" value="[else]" style="text;html=1;align=center;verticalAlign=middle;resizable=0;points=[];autosize=1;strokeColor=none;fillColor=none;" parent="sGXvdLq_XoUKNio_A1aQ-12" vertex="1">
          <mxGeometry x="-597" y="1383" width="50" height="30" as="geometry" />
        </mxCell>
        <mxCell id="sGXvdLq_XoUKNio_A1aQ-63" value="[if folder is &lt;br&gt;inexistent]" style="text;html=1;align=center;verticalAlign=middle;resizable=0;points=[];autosize=1;strokeColor=none;fillColor=none;" parent="sGXvdLq_XoUKNio_A1aQ-12" vertex="1">
          <mxGeometry x="-599" y="663" width="80" height="40" as="geometry" />
        </mxCell>
        <mxCell id="sGXvdLq_XoUKNio_A1aQ-72" value="[else]" style="text;html=1;align=center;verticalAlign=middle;resizable=0;points=[];autosize=1;strokeColor=none;fillColor=none;" parent="sGXvdLq_XoUKNio_A1aQ-12" vertex="1">
          <mxGeometry x="-597" y="823" width="50" height="30" as="geometry" />
        </mxCell>
        <mxCell id="vB3oa_qT5mKGnojGgwLK-3" value="" style="endArrow=open;endFill=1;endSize=12;html=1;rounded=1;strokeColor=#006658;fontColor=#5C5C5C;fillColor=#21C0A5;" edge="1" parent="sGXvdLq_XoUKNio_A1aQ-12">
          <mxGeometry width="160" relative="1" as="geometry">
            <mxPoint x="-140.51" y="137" as="sourcePoint" />
            <mxPoint x="49.49000000000001" y="137" as="targetPoint" />
          </mxGeometry>
        </mxCell>
        <mxCell id="vB3oa_qT5mKGnojGgwLK-26" value="Folder created successfully" style="text;html=1;align=center;verticalAlign=middle;resizable=0;points=[];autosize=1;strokeColor=none;fillColor=none;fontColor=#5C5C5C;rounded=1;" vertex="1" parent="sGXvdLq_XoUKNio_A1aQ-12">
          <mxGeometry x="-129.08999999999992" y="225.99999999999994" width="170" height="30" as="geometry" />
        </mxCell>
        <mxCell id="vB3oa_qT5mKGnojGgwLK-27" value="" style="endArrow=block;dashed=1;endFill=0;endSize=12;html=1;rounded=1;strokeColor=#006658;fontColor=#5C5C5C;fillColor=#21C0A5;" edge="1" parent="sGXvdLq_XoUKNio_A1aQ-12">
          <mxGeometry width="160" relative="1" as="geometry">
            <mxPoint x="50.830000000000155" y="258.00000000000006" as="sourcePoint" />
            <mxPoint x="-139.00333333333333" y="258.00000000000006" as="targetPoint" />
          </mxGeometry>
        </mxCell>
        <mxCell id="sGXvdLq_XoUKNio_A1aQ-23" value="" style="endArrow=none;dashed=1;html=1;rounded=1;strokeColor=#006658;fontColor=#5C5C5C;" parent="1" edge="1">
          <mxGeometry width="50" height="50" relative="1" as="geometry">
            <mxPoint x="151" y="2350" as="sourcePoint" />
            <mxPoint x="151" y="122" as="targetPoint" />
          </mxGeometry>
        </mxCell>
        <mxCell id="sGXvdLq_XoUKNio_A1aQ-30" value="execute application" style="text;html=1;align=center;verticalAlign=middle;resizable=0;points=[];autosize=1;strokeColor=none;fillColor=none;fontColor=#5C5C5C;rounded=1;" parent="1" vertex="1">
          <mxGeometry x="181" y="128" width="130" height="30" as="geometry" />
        </mxCell>
        <mxCell id="sGXvdLq_XoUKNio_A1aQ-31" value="" style="endArrow=open;endFill=1;endSize=12;html=1;rounded=1;strokeColor=#006658;fontColor=#5C5C5C;fillColor=#21C0A5;" parent="1" edge="1">
          <mxGeometry width="160" relative="1" as="geometry">
            <mxPoint x="151" y="158" as="sourcePoint" />
            <mxPoint x="341" y="158" as="targetPoint" />
          </mxGeometry>
        </mxCell>
        <mxCell id="sGXvdLq_XoUKNio_A1aQ-33" value="Start program process" style="text;html=1;align=center;verticalAlign=middle;resizable=0;points=[];autosize=1;strokeColor=none;fillColor=none;fontColor=#5C5C5C;rounded=1;" parent="1" vertex="1">
          <mxGeometry x="366" y="148" width="140" height="30" as="geometry" />
        </mxCell>
        <mxCell id="sGXvdLq_XoUKNio_A1aQ-34" value="" style="endArrow=open;endFill=1;endSize=12;html=1;rounded=1;strokeColor=#006658;fontColor=#5C5C5C;fillColor=#21C0A5;" parent="1" edge="1">
          <mxGeometry width="160" relative="1" as="geometry">
            <mxPoint x="341" y="178" as="sourcePoint" />
            <mxPoint x="531" y="178" as="targetPoint" />
          </mxGeometry>
        </mxCell>
        <mxCell id="sGXvdLq_XoUKNio_A1aQ-37" value="" style="endArrow=block;dashed=1;endFill=0;endSize=12;html=1;rounded=1;strokeColor=#006658;fontColor=#5C5C5C;fillColor=#21C0A5;" parent="1" edge="1">
          <mxGeometry width="160" relative="1" as="geometry">
            <mxPoint x="340.9200000000002" y="449" as="sourcePoint" />
            <mxPoint x="151.08666666666673" y="449" as="targetPoint" />
          </mxGeometry>
        </mxCell>
        <mxCell id="sGXvdLq_XoUKNio_A1aQ-77" value="Loading screen" style="text;html=1;align=center;verticalAlign=middle;resizable=0;points=[];autosize=1;strokeColor=none;fillColor=none;fontColor=#5C5C5C;rounded=1;" parent="1" vertex="1">
          <mxGeometry x="381.42" y="517" width="110" height="30" as="geometry" />
        </mxCell>
        <mxCell id="sGXvdLq_XoUKNio_A1aQ-78" value="" style="endArrow=block;dashed=1;endFill=0;endSize=12;html=1;rounded=1;strokeColor=#006658;fontColor=#5C5C5C;fillColor=#21C0A5;" parent="1" edge="1">
          <mxGeometry width="160" relative="1" as="geometry">
            <mxPoint x="530.9200000000003" y="545" as="sourcePoint" />
            <mxPoint x="341.08666666666676" y="545" as="targetPoint" />
          </mxGeometry>
        </mxCell>
        <mxCell id="sGXvdLq_XoUKNio_A1aQ-53" value="Inexistent src folder" style="text;html=1;align=center;verticalAlign=middle;resizable=0;points=[];autosize=1;strokeColor=none;fillColor=none;fontColor=#5C5C5C;rounded=1;" parent="1" vertex="1">
          <mxGeometry x="560.9100000000001" y="689.17" width="130" height="30" as="geometry" />
        </mxCell>
        <mxCell id="sGXvdLq_XoUKNio_A1aQ-54" value="" style="endArrow=block;dashed=1;endFill=0;endSize=12;html=1;rounded=1;strokeColor=#006658;fontColor=#5C5C5C;fillColor=#21C0A5;" parent="1" edge="1">
          <mxGeometry width="160" relative="1" as="geometry">
            <mxPoint x="720.8300000000002" y="719.17" as="sourcePoint" />
            <mxPoint x="530.9966666666667" y="719.17" as="targetPoint" />
          </mxGeometry>
        </mxCell>
        <mxCell id="sGXvdLq_XoUKNio_A1aQ-49" value="Verify src folder exists" style="text;html=1;align=center;verticalAlign=middle;resizable=0;points=[];autosize=1;strokeColor=none;fillColor=none;fontColor=#5C5C5C;rounded=1;" parent="1" vertex="1">
          <mxGeometry x="558.91" y="639" width="140" height="30" as="geometry" />
        </mxCell>
        <mxCell id="sGXvdLq_XoUKNio_A1aQ-91" value="Data entered" style="text;html=1;align=center;verticalAlign=middle;resizable=0;points=[];autosize=1;strokeColor=none;fillColor=none;fontColor=#5C5C5C;rounded=1;" parent="1" vertex="1">
          <mxGeometry x="201" y="994" width="90" height="30" as="geometry" />
        </mxCell>
        <mxCell id="sGXvdLq_XoUKNio_A1aQ-92" value="" style="endArrow=open;endFill=1;endSize=12;html=1;rounded=1;strokeColor=#006658;fontColor=#5C5C5C;fillColor=#21C0A5;" parent="1" edge="1">
          <mxGeometry width="160" relative="1" as="geometry">
            <mxPoint x="151" y="1023" as="sourcePoint" />
            <mxPoint x="341" y="1023" as="targetPoint" />
          </mxGeometry>
        </mxCell>
        <mxCell id="sGXvdLq_XoUKNio_A1aQ-93" value="Send work src created" style="text;html=1;align=center;verticalAlign=middle;resizable=0;points=[];autosize=1;strokeColor=none;fillColor=none;fontColor=#5C5C5C;rounded=1;" parent="1" vertex="1">
          <mxGeometry x="369" y="1013" width="140" height="30" as="geometry" />
        </mxCell>
        <mxCell id="sGXvdLq_XoUKNio_A1aQ-94" value="" style="endArrow=open;endFill=1;endSize=12;html=1;rounded=1;strokeColor=#006658;fontColor=#5C5C5C;fillColor=#21C0A5;" parent="1" edge="1">
          <mxGeometry width="160" relative="1" as="geometry">
            <mxPoint x="341" y="1043" as="sourcePoint" />
            <mxPoint x="531" y="1043" as="targetPoint" />
          </mxGeometry>
        </mxCell>
        <mxCell id="sGXvdLq_XoUKNio_A1aQ-137" value="" style="endArrow=block;endFill=0;endSize=12;html=1;rounded=1;strokeColor=#006658;fontColor=#5C5C5C;fillColor=#21C0A5;" parent="1" edge="1">
          <mxGeometry width="160" relative="1" as="geometry">
            <mxPoint x="151.0000000000002" y="2290" as="sourcePoint" />
            <mxPoint x="340.5" y="2290" as="targetPoint" />
          </mxGeometry>
        </mxCell>
        <mxCell id="sGXvdLq_XoUKNio_A1aQ-140" value="execute shutdown procedure" style="text;html=1;align=center;verticalAlign=middle;resizable=0;points=[];autosize=1;strokeColor=none;fillColor=none;fontColor=#5C5C5C;rounded=1;" parent="1" vertex="1">
          <mxGeometry x="344.25" y="2280" width="180" height="30" as="geometry" />
        </mxCell>
        <mxCell id="sGXvdLq_XoUKNio_A1aQ-141" value="" style="endArrow=block;endFill=0;endSize=12;html=1;rounded=1;strokeColor=#006658;fontColor=#5C5C5C;fillColor=#21C0A5;" parent="1" edge="1">
          <mxGeometry width="160" relative="1" as="geometry">
            <mxPoint x="341.2500000000002" y="2310" as="sourcePoint" />
            <mxPoint x="530.7500000000001" y="2310" as="targetPoint" />
          </mxGeometry>
        </mxCell>
        <mxCell id="sGXvdLq_XoUKNio_A1aQ-146" value="shutdown" style="text;html=1;align=center;verticalAlign=middle;resizable=0;points=[];autosize=1;strokeColor=none;fillColor=none;fontColor=#5C5C5C;rounded=1;" parent="1" vertex="1">
          <mxGeometry x="369" y="2330" width="70" height="30" as="geometry" />
        </mxCell>
        <mxCell id="sGXvdLq_XoUKNio_A1aQ-147" value="" style="endArrow=open;endFill=1;endSize=12;html=1;rounded=0;" parent="1" edge="1">
          <mxGeometry width="160" relative="1" as="geometry">
            <mxPoint x="530.19" y="2329" as="sourcePoint" />
            <mxPoint x="530.0003448275861" y="2349" as="targetPoint" />
            <Array as="points">
              <mxPoint x="560.19" y="2329" />
              <mxPoint x="560.19" y="2349" />
            </Array>
          </mxGeometry>
        </mxCell>
        <mxCell id="sGXvdLq_XoUKNio_A1aQ-148" value="shutdown" style="text;html=1;align=center;verticalAlign=middle;resizable=0;points=[];autosize=1;strokeColor=none;fillColor=none;fontColor=#5C5C5C;rounded=1;" parent="1" vertex="1">
          <mxGeometry x="558.19" y="2329" width="70" height="30" as="geometry" />
        </mxCell>
        <mxCell id="sGXvdLq_XoUKNio_A1aQ-149" value="" style="endArrow=block;dashed=1;endFill=0;endSize=12;html=1;rounded=1;strokeColor=#006658;fontColor=#5C5C5C;fillColor=#21C0A5;" parent="1" edge="1">
          <mxGeometry width="160" relative="1" as="geometry">
            <mxPoint x="531.3400000000004" y="739" as="sourcePoint" />
            <mxPoint x="341.5066666666667" y="739" as="targetPoint" />
          </mxGeometry>
        </mxCell>
        <mxCell id="sGXvdLq_XoUKNio_A1aQ-156" value="Send option selected" style="text;html=1;align=center;verticalAlign=middle;resizable=0;points=[];autosize=1;strokeColor=none;fillColor=none;fontColor=#5C5C5C;rounded=1;" parent="1" vertex="1">
          <mxGeometry x="366" y="781" width="140" height="30" as="geometry" />
        </mxCell>
        <mxCell id="sGXvdLq_XoUKNio_A1aQ-65" value="" style="line;strokeWidth=1;fillColor=none;align=left;verticalAlign=middle;spacingTop=-1;spacingLeft=3;spacingRight=3;rotatable=0;labelPosition=right;points=[];portConstraint=eastwest;strokeColor=inherit;dashed=1;" parent="1" vertex="1">
          <mxGeometry x="80" y="879" width="661" height="8" as="geometry" />
        </mxCell>
        <mxCell id="sGXvdLq_XoUKNio_A1aQ-138" value="select shutdown application" style="text;html=1;align=center;verticalAlign=middle;resizable=0;points=[];autosize=1;strokeColor=none;fillColor=none;fontColor=#5C5C5C;rounded=1;" parent="1" vertex="1">
          <mxGeometry x="161" y="2260" width="170" height="30" as="geometry" />
        </mxCell>
        <mxCell id="sGXvdLq_XoUKNio_A1aQ-291" value="Select create log journalier" style="text;html=1;align=center;verticalAlign=middle;resizable=0;points=[];autosize=1;strokeColor=none;fillColor=none;fontColor=#5C5C5C;rounded=1;" parent="1" vertex="1">
          <mxGeometry x="159.5" y="1720" width="170" height="30" as="geometry" />
        </mxCell>
        <mxCell id="sGXvdLq_XoUKNio_A1aQ-292" value="" style="endArrow=open;endFill=1;endSize=12;html=1;rounded=1;strokeColor=#006658;fontColor=#5C5C5C;fillColor=#21C0A5;" parent="1" edge="1">
          <mxGeometry width="160" relative="1" as="geometry">
            <mxPoint x="150.5" y="1750" as="sourcePoint" />
            <mxPoint x="340.5" y="1750" as="targetPoint" />
          </mxGeometry>
        </mxCell>
        <mxCell id="sGXvdLq_XoUKNio_A1aQ-293" value="Ask interface create log journalier" style="text;html=1;align=center;verticalAlign=middle;resizable=0;points=[];autosize=1;strokeColor=none;fillColor=none;fontColor=#5C5C5C;rounded=1;" parent="1" vertex="1">
          <mxGeometry x="336.5" y="1740" width="200" height="30" as="geometry" />
        </mxCell>
        <mxCell id="sGXvdLq_XoUKNio_A1aQ-294" value="" style="endArrow=open;endFill=1;endSize=12;html=1;rounded=1;strokeColor=#006658;fontColor=#5C5C5C;fillColor=#21C0A5;" parent="1" edge="1">
          <mxGeometry width="160" relative="1" as="geometry">
            <mxPoint x="340.5" y="1770" as="sourcePoint" />
            <mxPoint x="530.5" y="1770" as="targetPoint" />
          </mxGeometry>
        </mxCell>
        <mxCell id="vB3oa_qT5mKGnojGgwLK-1" value="Verify folder exists" style="text;html=1;align=center;verticalAlign=middle;resizable=0;points=[];autosize=1;strokeColor=none;fillColor=none;fontColor=#5C5C5C;rounded=1;" vertex="1" parent="1">
          <mxGeometry x="565.91" y="163" width="120" height="30" as="geometry" />
        </mxCell>
        <mxCell id="vB3oa_qT5mKGnojGgwLK-6" value="Alternative" style="shape=umlFrame;whiteSpace=wrap;html=1;width=60;height=35;" vertex="1" parent="1">
          <mxGeometry x="80.5" y="213" width="659.5" height="177" as="geometry" />
        </mxCell>
        <mxCell id="vB3oa_qT5mKGnojGgwLK-7" value="Loading screen" style="text;html=1;align=center;verticalAlign=middle;resizable=0;points=[];autosize=1;strokeColor=none;fillColor=none;fontColor=#5C5C5C;rounded=1;" vertex="1" parent="1">
          <mxGeometry x="380.99999999999994" y="394" width="110" height="30" as="geometry" />
        </mxCell>
        <mxCell id="vB3oa_qT5mKGnojGgwLK-17" value="[if folder is &lt;br&gt;inexistent]" style="text;html=1;align=center;verticalAlign=middle;resizable=0;points=[];autosize=1;strokeColor=none;fillColor=none;" vertex="1" parent="1">
          <mxGeometry x="72.5" y="246" width="80" height="40" as="geometry" />
        </mxCell>
        <mxCell id="vB3oa_qT5mKGnojGgwLK-18" value="[else]" style="text;html=1;align=center;verticalAlign=middle;resizable=0;points=[];autosize=1;strokeColor=none;fillColor=none;" vertex="1" parent="1">
          <mxGeometry x="72.5" y="339" width="50" height="30" as="geometry" />
        </mxCell>
        <mxCell id="vB3oa_qT5mKGnojGgwLK-19" value="Inexistent folder" style="text;html=1;align=center;verticalAlign=middle;resizable=0;points=[];autosize=1;strokeColor=none;fillColor=none;fontColor=#5C5C5C;rounded=1;" vertex="1" parent="1">
          <mxGeometry x="571.4100000000001" y="215.16999999999996" width="110" height="30" as="geometry" />
        </mxCell>
        <mxCell id="vB3oa_qT5mKGnojGgwLK-20" value="" style="endArrow=block;dashed=1;endFill=0;endSize=12;html=1;rounded=1;strokeColor=#006658;fontColor=#5C5C5C;fillColor=#21C0A5;" edge="1" parent="1">
          <mxGeometry width="160" relative="1" as="geometry">
            <mxPoint x="721.3300000000002" y="245.17000000000007" as="sourcePoint" />
            <mxPoint x="531.4966666666667" y="245.17000000000007" as="targetPoint" />
          </mxGeometry>
        </mxCell>
        <mxCell id="vB3oa_qT5mKGnojGgwLK-21" value="" style="endArrow=block;dashed=1;endFill=0;endSize=12;html=1;rounded=1;strokeColor=#006658;fontColor=#5C5C5C;fillColor=#21C0A5;" edge="1" parent="1">
          <mxGeometry width="160" relative="1" as="geometry">
            <mxPoint x="530.9200000000004" y="423.8299999999999" as="sourcePoint" />
            <mxPoint x="341.08666666666664" y="423.8299999999999" as="targetPoint" />
          </mxGeometry>
        </mxCell>
        <mxCell id="vB3oa_qT5mKGnojGgwLK-23" value="" style="line;strokeWidth=1;fillColor=none;align=left;verticalAlign=middle;spacingTop=-1;spacingLeft=3;spacingRight=3;rotatable=0;labelPosition=right;points=[];portConstraint=eastwest;strokeColor=inherit;dashed=1;" vertex="1" parent="1">
          <mxGeometry x="80" y="339" width="640" height="8" as="geometry" />
        </mxCell>
        <mxCell id="vB3oa_qT5mKGnojGgwLK-24" value="" style="endArrow=open;endFill=1;endSize=12;html=1;rounded=1;strokeColor=#006658;fontColor=#5C5C5C;fillColor=#21C0A5;" edge="1" parent="1">
          <mxGeometry width="160" relative="1" as="geometry">
            <mxPoint x="531.41" y="279" as="sourcePoint" />
            <mxPoint x="721.41" y="279" as="targetPoint" />
          </mxGeometry>
        </mxCell>
        <mxCell id="vB3oa_qT5mKGnojGgwLK-25" value="Set folder" style="text;html=1;align=center;verticalAlign=middle;resizable=0;points=[];autosize=1;strokeColor=none;fillColor=none;fontColor=#5C5C5C;rounded=1;" vertex="1" parent="1">
          <mxGeometry x="591.8299999999999" y="247" width="70" height="30" as="geometry" />
        </mxCell>
        <mxCell id="vB3oa_qT5mKGnojGgwLK-28" value="Existent folder" style="text;html=1;align=center;verticalAlign=middle;resizable=0;points=[];autosize=1;strokeColor=none;fillColor=none;fontColor=#5C5C5C;rounded=1;" vertex="1" parent="1">
          <mxGeometry x="575.91" y="350" width="100" height="30" as="geometry" />
        </mxCell>
        <mxCell id="vB3oa_qT5mKGnojGgwLK-29" value="" style="endArrow=block;dashed=1;endFill=0;endSize=12;html=1;rounded=1;strokeColor=#006658;fontColor=#5C5C5C;fillColor=#21C0A5;" edge="1" parent="1">
          <mxGeometry width="160" relative="1" as="geometry">
            <mxPoint x="720.8300000000005" y="377.8299999999999" as="sourcePoint" />
            <mxPoint x="530.9966666666666" y="377.8299999999999" as="targetPoint" />
          </mxGeometry>
        </mxCell>
        <mxCell id="vB3oa_qT5mKGnojGgwLK-30" value="Notify user of successful save&lt;br&gt;and display interface&amp;nbsp;" style="text;html=1;align=center;verticalAlign=middle;resizable=0;points=[];autosize=1;strokeColor=none;fillColor=none;fontColor=#5C5C5C;rounded=1;" vertex="1" parent="1">
          <mxGeometry x="158.4100000000001" y="1917" width="180" height="40" as="geometry" />
        </mxCell>
        <mxCell id="vB3oa_qT5mKGnojGgwLK-31" value="" style="endArrow=block;dashed=1;endFill=0;endSize=12;html=1;rounded=1;strokeColor=#006658;fontColor=#5C5C5C;fillColor=#21C0A5;" edge="1" parent="1">
          <mxGeometry width="160" relative="1" as="geometry">
            <mxPoint x="340.33000000000004" y="1957" as="sourcePoint" />
            <mxPoint x="150.4966666666668" y="1957" as="targetPoint" />
          </mxGeometry>
        </mxCell>
        <mxCell id="vB3oa_qT5mKGnojGgwLK-32" value="Saved successfully" style="text;html=1;align=center;verticalAlign=middle;resizable=0;points=[];autosize=1;strokeColor=none;fillColor=none;fontColor=#5C5C5C;rounded=1;" vertex="1" parent="1">
          <mxGeometry x="373.4100000000001" y="1907" width="130" height="30" as="geometry" />
        </mxCell>
        <mxCell id="vB3oa_qT5mKGnojGgwLK-33" value="" style="endArrow=block;dashed=1;endFill=0;endSize=12;html=1;rounded=1;strokeColor=#006658;fontColor=#5C5C5C;fillColor=#21C0A5;" edge="1" parent="1">
          <mxGeometry width="160" relative="1" as="geometry">
            <mxPoint x="531.33" y="1937" as="sourcePoint" />
            <mxPoint x="341.4966666666668" y="1937" as="targetPoint" />
          </mxGeometry>
        </mxCell>
        <mxCell id="vB3oa_qT5mKGnojGgwLK-34" value="Loading screen" style="text;html=1;align=center;verticalAlign=middle;resizable=0;points=[];autosize=1;strokeColor=none;fillColor=none;fontColor=#5C5C5C;rounded=1;" vertex="1" parent="1">
          <mxGeometry x="383.83000000000004" y="1770" width="110" height="30" as="geometry" />
        </mxCell>
        <mxCell id="vB3oa_qT5mKGnojGgwLK-35" value="" style="endArrow=block;dashed=1;endFill=0;endSize=12;html=1;rounded=1;strokeColor=#006658;fontColor=#5C5C5C;fillColor=#21C0A5;" edge="1" parent="1">
          <mxGeometry width="160" relative="1" as="geometry">
            <mxPoint x="531.3300000000003" y="1798.0000000000002" as="sourcePoint" />
            <mxPoint x="341.4966666666668" y="1798.0000000000002" as="targetPoint" />
          </mxGeometry>
        </mxCell>
        <mxCell id="vB3oa_qT5mKGnojGgwLK-36" value="" style="endArrow=block;endFill=0;endSize=12;html=1;rounded=1;strokeColor=#006658;fontColor=#5C5C5C;fillColor=#21C0A5;" edge="1" parent="1">
          <mxGeometry width="160" relative="1" as="geometry">
            <mxPoint x="340.33000000000004" y="1819" as="sourcePoint" />
            <mxPoint x="150.4966666666668" y="1819" as="targetPoint" />
          </mxGeometry>
        </mxCell>
        <mxCell id="vB3oa_qT5mKGnojGgwLK-37" value="Request user enter data" style="text;html=1;align=center;verticalAlign=middle;resizable=0;points=[];autosize=1;strokeColor=none;fillColor=none;fontColor=#5C5C5C;rounded=1;" vertex="1" parent="1">
          <mxGeometry x="173.41" y="1789" width="150" height="30" as="geometry" />
        </mxCell>
        <mxCell id="vB3oa_qT5mKGnojGgwLK-38" value="Save log journalier created&lt;br&gt;&amp;nbsp;" style="text;html=1;align=center;verticalAlign=middle;resizable=0;points=[];autosize=1;strokeColor=none;fillColor=none;fontColor=#5C5C5C;rounded=1;" vertex="1" parent="1">
          <mxGeometry x="546.41" y="1857" width="170" height="40" as="geometry" />
        </mxCell>
        <mxCell id="vB3oa_qT5mKGnojGgwLK-39" value="" style="endArrow=open;endFill=1;endSize=12;html=1;rounded=1;strokeColor=#006658;fontColor=#5C5C5C;fillColor=#21C0A5;" edge="1" parent="1">
          <mxGeometry width="160" relative="1" as="geometry">
            <mxPoint x="531.41" y="1886" as="sourcePoint" />
            <mxPoint x="721.41" y="1886" as="targetPoint" />
          </mxGeometry>
        </mxCell>
        <mxCell id="vB3oa_qT5mKGnojGgwLK-40" value="Saved successfully" style="text;html=1;align=center;verticalAlign=middle;resizable=0;points=[];autosize=1;strokeColor=none;fillColor=none;fontColor=#5C5C5C;rounded=1;" vertex="1" parent="1">
          <mxGeometry x="563.32" y="1886" width="130" height="30" as="geometry" />
        </mxCell>
        <mxCell id="vB3oa_qT5mKGnojGgwLK-41" value="" style="endArrow=block;dashed=1;endFill=0;endSize=12;html=1;rounded=1;strokeColor=#006658;fontColor=#5C5C5C;fillColor=#21C0A5;" edge="1" parent="1">
          <mxGeometry width="160" relative="1" as="geometry">
            <mxPoint x="720.2400000000001" y="1916" as="sourcePoint" />
            <mxPoint x="530.4066666666666" y="1916" as="targetPoint" />
          </mxGeometry>
        </mxCell>
        <mxCell id="vB3oa_qT5mKGnojGgwLK-42" value="Data entered" style="text;html=1;align=center;verticalAlign=middle;resizable=0;points=[];autosize=1;strokeColor=none;fillColor=none;fontColor=#5C5C5C;rounded=1;" vertex="1" parent="1">
          <mxGeometry x="203.41" y="1820" width="90" height="30" as="geometry" />
        </mxCell>
        <mxCell id="vB3oa_qT5mKGnojGgwLK-43" value="" style="endArrow=open;endFill=1;endSize=12;html=1;rounded=1;strokeColor=#006658;fontColor=#5C5C5C;fillColor=#21C0A5;" edge="1" parent="1">
          <mxGeometry width="160" relative="1" as="geometry">
            <mxPoint x="150.9999999999999" y="1850" as="sourcePoint" />
            <mxPoint x="340.99999999999994" y="1850" as="targetPoint" />
          </mxGeometry>
        </mxCell>
        <mxCell id="vB3oa_qT5mKGnojGgwLK-44" value="Send log journalier created" style="text;html=1;align=center;verticalAlign=middle;resizable=0;points=[];autosize=1;strokeColor=none;fillColor=none;fontColor=#5C5C5C;rounded=1;" vertex="1" parent="1">
          <mxGeometry x="356.40999999999997" y="1839" width="170" height="30" as="geometry" />
        </mxCell>
        <mxCell id="vB3oa_qT5mKGnojGgwLK-45" value="" style="endArrow=open;endFill=1;endSize=12;html=1;rounded=1;strokeColor=#006658;fontColor=#5C5C5C;fillColor=#21C0A5;" edge="1" parent="1">
          <mxGeometry width="160" relative="1" as="geometry">
            <mxPoint x="343.40999999999997" y="1869" as="sourcePoint" />
            <mxPoint x="533.41" y="1869" as="targetPoint" />
          </mxGeometry>
        </mxCell>
        <mxCell id="vB3oa_qT5mKGnojGgwLK-46" value="Select create log state" style="text;html=1;align=center;verticalAlign=middle;resizable=0;points=[];autosize=1;strokeColor=none;fillColor=none;fontColor=#5C5C5C;rounded=1;" vertex="1" parent="1">
          <mxGeometry x="175.55" y="2000" width="140" height="30" as="geometry" />
        </mxCell>
        <mxCell id="vB3oa_qT5mKGnojGgwLK-47" value="" style="endArrow=open;endFill=1;endSize=12;html=1;rounded=1;strokeColor=#006658;fontColor=#5C5C5C;fillColor=#21C0A5;" edge="1" parent="1">
          <mxGeometry width="160" relative="1" as="geometry">
            <mxPoint x="151.55" y="2030" as="sourcePoint" />
            <mxPoint x="341.55" y="2030" as="targetPoint" />
          </mxGeometry>
        </mxCell>
        <mxCell id="vB3oa_qT5mKGnojGgwLK-48" value="Ask interface create log state" style="text;html=1;align=center;verticalAlign=middle;resizable=0;points=[];autosize=1;strokeColor=none;fillColor=none;fontColor=#5C5C5C;rounded=1;" vertex="1" parent="1">
          <mxGeometry x="347.55" y="2020" width="180" height="30" as="geometry" />
        </mxCell>
        <mxCell id="vB3oa_qT5mKGnojGgwLK-49" value="" style="endArrow=open;endFill=1;endSize=12;html=1;rounded=1;strokeColor=#006658;fontColor=#5C5C5C;fillColor=#21C0A5;" edge="1" parent="1">
          <mxGeometry width="160" relative="1" as="geometry">
            <mxPoint x="341.55" y="2050" as="sourcePoint" />
            <mxPoint x="531.55" y="2050" as="targetPoint" />
          </mxGeometry>
        </mxCell>
        <mxCell id="vB3oa_qT5mKGnojGgwLK-50" value="Notify user of successful save&lt;br&gt;and display interface&amp;nbsp;" style="text;html=1;align=center;verticalAlign=middle;resizable=0;points=[];autosize=1;strokeColor=none;fillColor=none;fontColor=#5C5C5C;rounded=1;" vertex="1" parent="1">
          <mxGeometry x="159.46000000000012" y="2197" width="180" height="40" as="geometry" />
        </mxCell>
        <mxCell id="vB3oa_qT5mKGnojGgwLK-51" value="" style="endArrow=block;dashed=1;endFill=0;endSize=12;html=1;rounded=1;strokeColor=#006658;fontColor=#5C5C5C;fillColor=#21C0A5;" edge="1" parent="1">
          <mxGeometry width="160" relative="1" as="geometry">
            <mxPoint x="341.37999999999994" y="2237" as="sourcePoint" />
            <mxPoint x="151.54666666666668" y="2237" as="targetPoint" />
          </mxGeometry>
        </mxCell>
        <mxCell id="vB3oa_qT5mKGnojGgwLK-52" value="Saved successfully" style="text;html=1;align=center;verticalAlign=middle;resizable=0;points=[];autosize=1;strokeColor=none;fillColor=none;fontColor=#5C5C5C;rounded=1;" vertex="1" parent="1">
          <mxGeometry x="374.4600000000001" y="2187" width="130" height="30" as="geometry" />
        </mxCell>
        <mxCell id="vB3oa_qT5mKGnojGgwLK-53" value="" style="endArrow=block;dashed=1;endFill=0;endSize=12;html=1;rounded=1;strokeColor=#006658;fontColor=#5C5C5C;fillColor=#21C0A5;" edge="1" parent="1">
          <mxGeometry width="160" relative="1" as="geometry">
            <mxPoint x="532.3799999999999" y="2217" as="sourcePoint" />
            <mxPoint x="342.5466666666669" y="2217" as="targetPoint" />
          </mxGeometry>
        </mxCell>
        <mxCell id="vB3oa_qT5mKGnojGgwLK-54" value="Loading screen" style="text;html=1;align=center;verticalAlign=middle;resizable=0;points=[];autosize=1;strokeColor=none;fillColor=none;fontColor=#5C5C5C;rounded=1;" vertex="1" parent="1">
          <mxGeometry x="384.88000000000005" y="2050" width="110" height="30" as="geometry" />
        </mxCell>
        <mxCell id="vB3oa_qT5mKGnojGgwLK-55" value="" style="endArrow=block;dashed=1;endFill=0;endSize=12;html=1;rounded=1;strokeColor=#006658;fontColor=#5C5C5C;fillColor=#21C0A5;" edge="1" parent="1">
          <mxGeometry width="160" relative="1" as="geometry">
            <mxPoint x="530.3800000000003" y="2078" as="sourcePoint" />
            <mxPoint x="340.5466666666669" y="2078" as="targetPoint" />
          </mxGeometry>
        </mxCell>
        <mxCell id="vB3oa_qT5mKGnojGgwLK-56" value="" style="endArrow=block;endFill=0;endSize=12;html=1;rounded=1;strokeColor=#006658;fontColor=#5C5C5C;fillColor=#21C0A5;" edge="1" parent="1">
          <mxGeometry width="160" relative="1" as="geometry">
            <mxPoint x="341.37999999999994" y="2099" as="sourcePoint" />
            <mxPoint x="151.54666666666668" y="2099" as="targetPoint" />
          </mxGeometry>
        </mxCell>
        <mxCell id="vB3oa_qT5mKGnojGgwLK-57" value="Request user enter data" style="text;html=1;align=center;verticalAlign=middle;resizable=0;points=[];autosize=1;strokeColor=none;fillColor=none;fontColor=#5C5C5C;rounded=1;" vertex="1" parent="1">
          <mxGeometry x="174.46" y="2069" width="150" height="30" as="geometry" />
        </mxCell>
        <mxCell id="vB3oa_qT5mKGnojGgwLK-58" value="Save log state&amp;nbsp;created&lt;br&gt;&amp;nbsp;" style="text;html=1;align=center;verticalAlign=middle;resizable=0;points=[];autosize=1;strokeColor=none;fillColor=none;fontColor=#5C5C5C;rounded=1;" vertex="1" parent="1">
          <mxGeometry x="562.4599999999999" y="2137" width="140" height="40" as="geometry" />
        </mxCell>
        <mxCell id="vB3oa_qT5mKGnojGgwLK-59" value="" style="endArrow=open;endFill=1;endSize=12;html=1;rounded=1;strokeColor=#006658;fontColor=#5C5C5C;fillColor=#21C0A5;" edge="1" parent="1">
          <mxGeometry width="160" relative="1" as="geometry">
            <mxPoint x="532.4599999999998" y="2166" as="sourcePoint" />
            <mxPoint x="722.4599999999998" y="2166" as="targetPoint" />
          </mxGeometry>
        </mxCell>
        <mxCell id="vB3oa_qT5mKGnojGgwLK-60" value="Saved successfully" style="text;html=1;align=center;verticalAlign=middle;resizable=0;points=[];autosize=1;strokeColor=none;fillColor=none;fontColor=#5C5C5C;rounded=1;" vertex="1" parent="1">
          <mxGeometry x="564.37" y="2166" width="130" height="30" as="geometry" />
        </mxCell>
        <mxCell id="vB3oa_qT5mKGnojGgwLK-61" value="" style="endArrow=block;dashed=1;endFill=0;endSize=12;html=1;rounded=1;strokeColor=#006658;fontColor=#5C5C5C;fillColor=#21C0A5;" edge="1" parent="1">
          <mxGeometry width="160" relative="1" as="geometry">
            <mxPoint x="720.2900000000002" y="2196" as="sourcePoint" />
            <mxPoint x="530.4566666666667" y="2196" as="targetPoint" />
          </mxGeometry>
        </mxCell>
        <mxCell id="vB3oa_qT5mKGnojGgwLK-62" value="Data entered" style="text;html=1;align=center;verticalAlign=middle;resizable=0;points=[];autosize=1;strokeColor=none;fillColor=none;fontColor=#5C5C5C;rounded=1;" vertex="1" parent="1">
          <mxGeometry x="204.46" y="2100" width="90" height="30" as="geometry" />
        </mxCell>
        <mxCell id="vB3oa_qT5mKGnojGgwLK-63" value="" style="endArrow=open;endFill=1;endSize=12;html=1;rounded=1;strokeColor=#006658;fontColor=#5C5C5C;fillColor=#21C0A5;" edge="1" parent="1">
          <mxGeometry width="160" relative="1" as="geometry">
            <mxPoint x="152.0499999999999" y="2130" as="sourcePoint" />
            <mxPoint x="342.05" y="2130" as="targetPoint" />
          </mxGeometry>
        </mxCell>
        <mxCell id="vB3oa_qT5mKGnojGgwLK-64" value="Send log log state created" style="text;html=1;align=center;verticalAlign=middle;resizable=0;points=[];autosize=1;strokeColor=none;fillColor=none;fontColor=#5C5C5C;rounded=1;" vertex="1" parent="1">
          <mxGeometry x="362.46" y="2119" width="160" height="30" as="geometry" />
        </mxCell>
        <mxCell id="vB3oa_qT5mKGnojGgwLK-65" value="" style="endArrow=open;endFill=1;endSize=12;html=1;rounded=1;strokeColor=#006658;fontColor=#5C5C5C;fillColor=#21C0A5;" edge="1" parent="1">
          <mxGeometry width="160" relative="1" as="geometry">
            <mxPoint x="342.45999999999987" y="2149" as="sourcePoint" />
            <mxPoint x="532.4599999999998" y="2149" as="targetPoint" />
          </mxGeometry>
        </mxCell>
        <mxCell id="vB3oa_qT5mKGnojGgwLK-67" value="" style="whiteSpace=wrap;html=1;aspect=fixed;" vertex="1" parent="1">
          <mxGeometry x="300" y="180" width="80" height="80" as="geometry" />
        </mxCell>
      </root>
    </mxGraphModel>
  </diagram>
</mxfile>
